<?xml version="1.0" standalone="no"?>
<!DOCTYPE svg PUBLIC "-//W3C//DTD SVG 20010904//EN"
 "http://www.w3.org/TR/2001/REC-SVG-20010904/DTD/svg10.dtd">
<svg version="1.0" xmlns="http://www.w3.org/2000/svg"
 width="260.000000pt" height="260.000000pt" viewBox="0 0 260.000000 260.000000"
 preserveAspectRatio="xMidYMid meet">
<metadata>
Created by potrace 1.11, written by Peter Selinger 2001-2013
</metadata>
<g transform="translate(0.000000,260.000000) scale(0.100000,-0.100000)"
fill="#000000" stroke="none">
<path d="M1565 1808 c-165 -237 -301 -435 -303 -440 -2 -4 64 -8 146 -8 l150
0 33 52 34 53 3 -53 3 -52 120 0 119 0 0 440 c0 242 -1 440 -3 440 -1 0 -137
-194 -302 -432z"/>
<path d="M1165 2209 c-476 -83 -718 -328 -800 -811 l-6 -38 113 0 113 0 22 93
c35 144 100 265 192 357 108 107 226 164 405 196 43 7 80 15 81 16 2 2 6 49
10 106 6 83 5 102 -6 101 -8 0 -63 -9 -124 -20z"/>
<path d="M148 1242 c-42 -70 -75 -129 -73 -131 3 -2 38 22 80 53 45 34 80 54
88 50 6 -5 44 -32 83 -61 39 -29 76 -53 82 -53 6 0 19 15 29 33 l17 32 6 -30
c3 -18 12 -31 23 -33 16 -3 18 4 15 70 -3 85 -16 93 -53 33 l-24 -40 -1 43 c0
67 -24 48 -30 -23 l-5 -59 -75 122 c-41 67 -77 122 -80 122 -3 -1 -40 -58 -82
-128z"/>
<path d="M740 1241 c0 -108 3 -131 15 -131 11 0 15 20 17 100 l3 100 64 -105
c35 -57 67 -102 71 -100 4 3 34 48 66 102 l59 97 3 -97 c2 -77 6 -97 17 -97
12 0 15 23 15 131 l0 130 -80 -61 c-50 -39 -84 -59 -92 -54 -7 4 -40 28 -73
54 -33 26 -66 50 -72 54 -10 6 -13 -22 -13 -123z"/>
<path d="M1798 1304 c-35 -19 -48 -43 -48 -92 0 -75 72 -126 144 -102 44 14
61 33 43 48 -10 9 -22 8 -45 0 -69 -26 -126 35 -85 91 24 32 56 38 89 16 20
-13 28 -14 40 -4 21 17 17 27 -16 44 -36 19 -87 19 -122 -1z"/>
<path d="M1129 1249 c-25 -9 -49 -45 -49 -73 0 -7 10 -25 21 -40 17 -22 28
-26 57 -24 74 6 96 100 32 133 -16 8 -30 15 -32 14 -2 0 -15 -5 -29 -10z m59
-45 c20 -36 -10 -71 -49 -59 -19 6 -27 54 -12 68 12 13 52 7 61 -9z"/>
<path d="M547 1232 c-15 -10 -30 -27 -33 -40 -7 -24 10 -52 32 -52 8 0 14 -9
14 -20 0 -26 30 -27 37 -1 2 10 16 24 29 30 37 17 32 54 -12 80 -19 12 -36 21
-37 20 -1 0 -15 -8 -30 -17z m9 -59 c-10 -10 -19 5 -10 18 6 11 8 11 12 0 2
-7 1 -15 -2 -18z m59 18 c3 -5 1 -12 -5 -16 -5 -3 -10 1 -10 9 0 18 6 21 15 7z"/>
<path d="M653 1233 c-4 -9 -1 -19 5 -21 7 -2 12 -25 12 -59 0 -46 3 -54 18
-51 13 2 18 15 20 53 2 27 8 53 14 56 6 4 8 14 5 23 -9 22 -66 21 -74 -1z"/>
<path d="M1240 1180 c0 -63 2 -70 20 -70 16 0 20 7 20 30 0 39 27 41 32 3 2
-17 10 -29 21 -31 15 -3 17 5 17 67 0 64 -2 71 -20 71 -15 0 -20 -7 -20 -25 0
-16 -6 -25 -15 -25 -9 0 -15 9 -15 25 0 18 -5 25 -20 25 -18 0 -20 -7 -20 -70z"/>
<path d="M1360 1235 c0 -8 5 -15 10 -15 6 0 10 -25 10 -55 0 -42 3 -55 15 -55
12 0 15 13 15 55 0 42 3 55 15 55 8 0 15 7 15 15 0 11 -11 15 -40 15 -29 0
-40 -4 -40 -15z"/>
<path d="M1466 1185 c-14 -36 -26 -67 -26 -70 0 -12 31 -3 36 10 4 8 17 15 30
15 14 0 27 -7 30 -15 6 -15 34 -21 34 -7 0 4 -10 35 -22 70 -29 83 -48 83 -82
-3z m48 0 c3 -8 1 -15 -4 -15 -6 0 -10 7 -10 15 0 8 2 15 4 15 2 0 6 -7 10
-15z"/>
<path d="M1601 1221 l22 -29 -22 -35 c-25 -40 -26 -47 -7 -47 8 0 23 15 35 33
l21 32 0 -32 c0 -23 5 -33 15 -33 10 0 15 10 15 28 l1 27 17 -27 c9 -16 25
-28 34 -28 23 0 23 4 -7 48 -25 36 -25 36 -5 57 11 12 20 24 20 28 0 14 -33 6
-46 -10 -13 -17 -13 -17 -14 0 0 22 -30 23 -30 0 0 -15 -1 -15 -18 0 -10 10
-26 17 -36 17 -15 0 -14 -4 5 -29z"/>
<path d="M1970 1180 l0 -70 40 0 c29 0 40 4 40 15 0 9 -9 15 -25 15 -16 0 -25
6 -25 15 0 9 9 15 25 15 16 0 25 6 25 15 0 9 -9 15 -25 15 -14 0 -25 5 -25 10
0 6 11 10 25 10 16 0 25 6 25 15 0 11 -11 15 -40 15 l-40 0 0 -70z"/>
<path d="M2060 1180 c0 -56 3 -70 15 -70 9 0 15 9 15 24 0 17 9 29 27 38 53
25 37 78 -23 78 l-34 0 0 -70z m55 30 c3 -5 -1 -10 -9 -10 -9 0 -16 5 -16 10
0 6 4 10 9 10 6 0 13 -4 16 -10z"/>
<path d="M2170 1179 l0 -70 36 3 c45 4 65 29 47 58 -7 10 -10 26 -7 35 9 23
-14 45 -47 45 l-29 0 0 -71z m45 31 c3 -5 1 -10 -4 -10 -6 0 -11 5 -11 10 0 6
2 10 4 10 3 0 8 -4 11 -10z m5 -61 c0 -5 -4 -9 -10 -9 -5 0 -10 7 -10 16 0 8
5 12 10 9 6 -3 10 -10 10 -16z"/>
<path d="M2270 1180 c0 -61 2 -70 18 -70 10 0 27 16 40 38 l22 37 0 -37 c0
-27 4 -38 15 -38 12 0 15 14 15 70 0 80 -17 93 -47 38 l-18 -33 -3 33 c-2 24
-8 32 -23 32 -17 0 -19 -7 -19 -70z"/>
<path d="M2416 1228 c-46 -65 10 -142 84 -117 33 12 32 11 24 33 -5 13 -10 14
-20 5 -18 -15 -55 -8 -68 14 -22 35 35 75 69 47 18 -15 31 6 15 25 -20 24 -86
19 -104 -7z"/>
<path d="M400 1027 c0 -2 11 -36 25 -77 45 -133 143 -284 235 -362 l38 -33
-69 -95 c-37 -52 -68 -98 -69 -102 0 -5 74 -8 163 -8 l164 0 19 36 c14 26 24
34 39 31 11 -3 63 -16 116 -30 52 -14 128 -29 168 -33 l72 -7 -3 104 -3 104
-103 22 c-56 12 -109 26 -117 30 -12 7 13 50 120 211 74 111 135 204 135 207
0 3 -69 5 -153 5 l-153 0 -74 -107 c-41 -60 -87 -126 -102 -147 l-29 -40 -49
53 c-54 58 -110 145 -131 204 l-13 37 -113 0 c-62 0 -113 -1 -113 -3z"/>
<path d="M1630 690 l0 -340 120 0 120 0 0 340 0 340 -120 0 -120 0 0 -340z"/>
</g>
</svg>
